<mxfile host="app.diagrams.net" modified="2023-05-24T06:13:45.362Z" agent="Mozilla/5.0 (Windows NT 10.0; Win64; x64) AppleWebKit/537.36 (KHTML, like Gecko) Chrome/113.0.0.0 Safari/537.36" etag="DT99QbisMad0KImuK6qy" version="21.3.0" type="device">
  <diagram name="Page-1" id="qL9ipYWALyD0vf-naz3a">
    <mxGraphModel dx="2080" dy="902" grid="0" gridSize="10" guides="1" tooltips="1" connect="1" arrows="1" fold="1" page="0" pageScale="1" pageWidth="850" pageHeight="1100" math="0" shadow="0">
      <root>
        <mxCell id="0" />
        <mxCell id="1" parent="0" />
        <mxCell id="krYbnd5S0f_VIoZWMm4v-1" value="" style="shape=actor;whiteSpace=wrap;html=1;fontSize=16;" vertex="1" parent="1">
          <mxGeometry x="-776" y="38" width="40" height="60" as="geometry" />
        </mxCell>
        <mxCell id="krYbnd5S0f_VIoZWMm4v-2" value="Student" style="shape=umlActor;verticalLabelPosition=bottom;verticalAlign=top;html=1;outlineConnect=0;fontSize=16;" vertex="1" parent="1">
          <mxGeometry x="-826" y="173" width="30" height="60" as="geometry" />
        </mxCell>
        <mxCell id="krYbnd5S0f_VIoZWMm4v-3" value="Faculty" style="shape=umlActor;verticalLabelPosition=bottom;verticalAlign=top;html=1;outlineConnect=0;fontSize=16;" vertex="1" parent="1">
          <mxGeometry x="-726" y="178" width="30" height="60" as="geometry" />
        </mxCell>
        <mxCell id="krYbnd5S0f_VIoZWMm4v-6" value="Register(new member)" style="ellipse;whiteSpace=wrap;html=1;fontSize=16;" vertex="1" parent="1">
          <mxGeometry x="-620" y="-180" width="150" height="53" as="geometry" />
        </mxCell>
        <mxCell id="krYbnd5S0f_VIoZWMm4v-7" value="Update member information" style="ellipse;whiteSpace=wrap;html=1;fontSize=16;" vertex="1" parent="1">
          <mxGeometry x="-612" y="-103" width="139" height="50" as="geometry" />
        </mxCell>
        <mxCell id="krYbnd5S0f_VIoZWMm4v-8" value="Borrow books" style="ellipse;whiteSpace=wrap;html=1;fontSize=16;" vertex="1" parent="1">
          <mxGeometry x="-620" y="38" width="140.5" height="60" as="geometry" />
        </mxCell>
        <mxCell id="krYbnd5S0f_VIoZWMm4v-26" style="edgeStyle=none;curved=1;rounded=0;orthogonalLoop=1;jettySize=auto;html=1;fontSize=12;startSize=8;endSize=8;" edge="1" parent="1" source="krYbnd5S0f_VIoZWMm4v-9">
          <mxGeometry relative="1" as="geometry">
            <mxPoint x="-614" y="6" as="targetPoint" />
          </mxGeometry>
        </mxCell>
        <mxCell id="krYbnd5S0f_VIoZWMm4v-9" value="search for books" style="ellipse;whiteSpace=wrap;html=1;fontSize=16;" vertex="1" parent="1">
          <mxGeometry x="-615" y="-30" width="137.5" height="64" as="geometry" />
        </mxCell>
        <mxCell id="krYbnd5S0f_VIoZWMm4v-11" value="Return books" style="ellipse;whiteSpace=wrap;html=1;fontSize=16;" vertex="1" parent="1">
          <mxGeometry x="-615" y="113" width="137" height="53" as="geometry" />
        </mxCell>
        <mxCell id="krYbnd5S0f_VIoZWMm4v-12" value="Renew books" style="ellipse;whiteSpace=wrap;html=1;fontSize=16;" vertex="1" parent="1">
          <mxGeometry x="-613.75" y="186" width="145" height="57" as="geometry" />
        </mxCell>
        <mxCell id="krYbnd5S0f_VIoZWMm4v-13" value="Pay fines" style="ellipse;whiteSpace=wrap;html=1;fontSize=16;" vertex="1" parent="1">
          <mxGeometry x="-622.5" y="294" width="143" height="60" as="geometry" />
        </mxCell>
        <mxCell id="krYbnd5S0f_VIoZWMm4v-15" value="" style="sketch=0;html=1;dashed=0;whitespace=wrap;fillColor=#2875E2;strokeColor=#ffffff;points=[[0.005,0.63,0],[0.1,0.2,0],[0.9,0.2,0],[0.5,0,0],[0.995,0.63,0],[0.72,0.99,0],[0.5,1,0],[0.28,0.99,0]];verticalLabelPosition=bottom;align=center;verticalAlign=top;shape=mxgraph.kubernetes.icon;prIcon=user;fontSize=16;" vertex="1" parent="1">
          <mxGeometry x="-30" y="38" width="69" height="60" as="geometry" />
        </mxCell>
        <mxCell id="krYbnd5S0f_VIoZWMm4v-17" value="Manage books" style="ellipse;whiteSpace=wrap;html=1;fontSize=16;" vertex="1" parent="1">
          <mxGeometry x="-240" y="-153" width="120" height="69" as="geometry" />
        </mxCell>
        <mxCell id="krYbnd5S0f_VIoZWMm4v-18" value="Managing borrowing" style="ellipse;whiteSpace=wrap;html=1;fontSize=16;" vertex="1" parent="1">
          <mxGeometry x="-235" y="42" width="120" height="80" as="geometry" />
        </mxCell>
        <mxCell id="krYbnd5S0f_VIoZWMm4v-19" value="Manage returns" style="ellipse;whiteSpace=wrap;html=1;fontSize=16;" vertex="1" parent="1">
          <mxGeometry x="-235" y="158" width="120" height="80" as="geometry" />
        </mxCell>
        <mxCell id="krYbnd5S0f_VIoZWMm4v-20" value="Generate reports" style="ellipse;whiteSpace=wrap;html=1;fontSize=16;" vertex="1" parent="1">
          <mxGeometry x="-240" y="284" width="120" height="80" as="geometry" />
        </mxCell>
        <mxCell id="krYbnd5S0f_VIoZWMm4v-21" value="Manage members" style="ellipse;whiteSpace=wrap;html=1;fontSize=16;" vertex="1" parent="1">
          <mxGeometry x="-240" y="-67" width="120" height="85" as="geometry" />
        </mxCell>
        <mxCell id="krYbnd5S0f_VIoZWMm4v-22" value="" style="image;aspect=fixed;html=1;points=[];align=center;fontSize=12;image=img/lib/azure2/intune/Azure_AD_Roles_and_Administrators.svg;" vertex="1" parent="1">
          <mxGeometry x="-447" y="579" width="64" height="64" as="geometry" />
        </mxCell>
        <mxCell id="krYbnd5S0f_VIoZWMm4v-23" value="Login/Logout" style="ellipse;whiteSpace=wrap;html=1;fontSize=16;" vertex="1" parent="1">
          <mxGeometry x="-641" y="407" width="120" height="80" as="geometry" />
        </mxCell>
        <mxCell id="krYbnd5S0f_VIoZWMm4v-24" value="Manage users" style="ellipse;whiteSpace=wrap;html=1;fontSize=16;" vertex="1" parent="1">
          <mxGeometry x="-473" y="429" width="120" height="80" as="geometry" />
        </mxCell>
        <mxCell id="krYbnd5S0f_VIoZWMm4v-25" value="Manage permissions" style="ellipse;whiteSpace=wrap;html=1;fontSize=16;" vertex="1" parent="1">
          <mxGeometry x="-318" y="425" width="120" height="72" as="geometry" />
        </mxCell>
        <mxCell id="krYbnd5S0f_VIoZWMm4v-28" value="" style="endArrow=none;html=1;rounded=0;fontSize=12;startSize=8;endSize=8;curved=1;" edge="1" parent="1">
          <mxGeometry width="50" height="50" relative="1" as="geometry">
            <mxPoint x="-818" y="126" as="sourcePoint" />
            <mxPoint x="-706" y="126" as="targetPoint" />
          </mxGeometry>
        </mxCell>
        <mxCell id="krYbnd5S0f_VIoZWMm4v-29" value="" style="endArrow=none;html=1;rounded=0;fontSize=12;startSize=8;endSize=8;curved=1;entryX=0.5;entryY=1;entryDx=0;entryDy=0;" edge="1" parent="1" target="krYbnd5S0f_VIoZWMm4v-1">
          <mxGeometry width="50" height="50" relative="1" as="geometry">
            <mxPoint x="-756" y="128" as="sourcePoint" />
            <mxPoint x="-718" y="78" as="targetPoint" />
          </mxGeometry>
        </mxCell>
        <mxCell id="krYbnd5S0f_VIoZWMm4v-30" value="" style="endArrow=none;html=1;rounded=0;fontSize=12;startSize=8;endSize=8;curved=1;exitX=0.333;exitY=0;exitDx=0;exitDy=0;exitPerimeter=0;" edge="1" parent="1" source="krYbnd5S0f_VIoZWMm4v-2">
          <mxGeometry width="50" height="50" relative="1" as="geometry">
            <mxPoint x="-823" y="152" as="sourcePoint" />
            <mxPoint x="-816" y="126" as="targetPoint" />
          </mxGeometry>
        </mxCell>
        <mxCell id="krYbnd5S0f_VIoZWMm4v-31" value="" style="endArrow=none;html=1;rounded=0;fontSize=12;startSize=8;endSize=8;curved=1;" edge="1" parent="1">
          <mxGeometry width="50" height="50" relative="1" as="geometry">
            <mxPoint x="-707" y="179" as="sourcePoint" />
            <mxPoint x="-707" y="127" as="targetPoint" />
          </mxGeometry>
        </mxCell>
        <mxCell id="krYbnd5S0f_VIoZWMm4v-33" value="" style="endArrow=classic;html=1;rounded=0;fontSize=12;startSize=8;endSize=8;curved=1;entryX=0.043;entryY=0.64;entryDx=0;entryDy=0;entryPerimeter=0;" edge="1" parent="1" target="krYbnd5S0f_VIoZWMm4v-7">
          <mxGeometry width="50" height="50" relative="1" as="geometry">
            <mxPoint x="-752" y="38" as="sourcePoint" />
            <mxPoint x="-702" y="-8" as="targetPoint" />
          </mxGeometry>
        </mxCell>
        <mxCell id="krYbnd5S0f_VIoZWMm4v-34" value="" style="endArrow=classic;html=1;rounded=0;fontSize=12;startSize=8;endSize=8;curved=1;entryX=0;entryY=0.5;entryDx=0;entryDy=0;exitX=0.5;exitY=0;exitDx=0;exitDy=0;" edge="1" parent="1" source="krYbnd5S0f_VIoZWMm4v-1" target="krYbnd5S0f_VIoZWMm4v-6">
          <mxGeometry width="50" height="50" relative="1" as="geometry">
            <mxPoint x="-752" y="33" as="sourcePoint" />
            <mxPoint x="-596" y="-61" as="targetPoint" />
          </mxGeometry>
        </mxCell>
        <mxCell id="krYbnd5S0f_VIoZWMm4v-36" value="" style="endArrow=classic;html=1;rounded=0;fontSize=12;startSize=8;endSize=8;curved=1;exitX=0.75;exitY=0.25;exitDx=0;exitDy=0;exitPerimeter=0;" edge="1" parent="1" source="krYbnd5S0f_VIoZWMm4v-1" target="krYbnd5S0f_VIoZWMm4v-9">
          <mxGeometry width="50" height="50" relative="1" as="geometry">
            <mxPoint x="-722" y="68" as="sourcePoint" />
            <mxPoint x="-576" y="-41" as="targetPoint" />
          </mxGeometry>
        </mxCell>
        <mxCell id="krYbnd5S0f_VIoZWMm4v-37" value="" style="endArrow=classic;html=1;rounded=0;fontSize=12;startSize=8;endSize=8;curved=1;exitX=0.725;exitY=0.4;exitDx=0;exitDy=0;exitPerimeter=0;" edge="1" parent="1" source="krYbnd5S0f_VIoZWMm4v-1" target="krYbnd5S0f_VIoZWMm4v-8">
          <mxGeometry width="50" height="50" relative="1" as="geometry">
            <mxPoint x="-712" y="78" as="sourcePoint" />
            <mxPoint x="-566" y="-31" as="targetPoint" />
          </mxGeometry>
        </mxCell>
        <mxCell id="krYbnd5S0f_VIoZWMm4v-38" value="" style="endArrow=classic;html=1;rounded=0;fontSize=12;startSize=8;endSize=8;curved=1;entryX=0;entryY=0.5;entryDx=0;entryDy=0;exitX=0.9;exitY=0.5;exitDx=0;exitDy=0;exitPerimeter=0;" edge="1" parent="1" source="krYbnd5S0f_VIoZWMm4v-1" target="krYbnd5S0f_VIoZWMm4v-11">
          <mxGeometry width="50" height="50" relative="1" as="geometry">
            <mxPoint x="-702" y="88" as="sourcePoint" />
            <mxPoint x="-556" y="-21" as="targetPoint" />
          </mxGeometry>
        </mxCell>
        <mxCell id="krYbnd5S0f_VIoZWMm4v-39" value="" style="endArrow=classic;html=1;rounded=0;fontSize=12;startSize=8;endSize=8;curved=1;entryX=0;entryY=0.5;entryDx=0;entryDy=0;exitX=1;exitY=0.75;exitDx=0;exitDy=0;" edge="1" parent="1" source="krYbnd5S0f_VIoZWMm4v-1" target="krYbnd5S0f_VIoZWMm4v-12">
          <mxGeometry width="50" height="50" relative="1" as="geometry">
            <mxPoint x="-692" y="98" as="sourcePoint" />
            <mxPoint x="-546" y="-11" as="targetPoint" />
          </mxGeometry>
        </mxCell>
        <mxCell id="krYbnd5S0f_VIoZWMm4v-40" value="" style="endArrow=classic;html=1;rounded=0;fontSize=12;startSize=8;endSize=8;curved=1;entryX=0;entryY=0.5;entryDx=0;entryDy=0;" edge="1" parent="1" source="krYbnd5S0f_VIoZWMm4v-1" target="krYbnd5S0f_VIoZWMm4v-13">
          <mxGeometry width="50" height="50" relative="1" as="geometry">
            <mxPoint x="-682" y="108" as="sourcePoint" />
            <mxPoint x="-536" y="-1" as="targetPoint" />
          </mxGeometry>
        </mxCell>
        <mxCell id="krYbnd5S0f_VIoZWMm4v-42" value="" style="endArrow=classic;html=1;rounded=0;fontSize=12;startSize=8;endSize=8;curved=1;entryX=1;entryY=0.3;entryDx=0;entryDy=0;entryPerimeter=0;" edge="1" parent="1" target="krYbnd5S0f_VIoZWMm4v-20">
          <mxGeometry width="50" height="50" relative="1" as="geometry">
            <mxPoint x="21" y="99" as="sourcePoint" />
            <mxPoint x="-44" y="158" as="targetPoint" />
          </mxGeometry>
        </mxCell>
        <mxCell id="krYbnd5S0f_VIoZWMm4v-43" value="" style="endArrow=classic;html=1;rounded=0;fontSize=12;startSize=8;endSize=8;curved=1;exitX=0.28;exitY=0.99;exitDx=0;exitDy=0;exitPerimeter=0;" edge="1" parent="1" source="krYbnd5S0f_VIoZWMm4v-15" target="krYbnd5S0f_VIoZWMm4v-19">
          <mxGeometry width="50" height="50" relative="1" as="geometry">
            <mxPoint x="-18" y="199" as="sourcePoint" />
            <mxPoint x="-46" y="122" as="targetPoint" />
          </mxGeometry>
        </mxCell>
        <mxCell id="krYbnd5S0f_VIoZWMm4v-44" value="" style="endArrow=classic;html=1;rounded=0;fontSize=12;startSize=8;endSize=8;curved=1;exitX=0.072;exitY=0.583;exitDx=0;exitDy=0;exitPerimeter=0;entryX=1;entryY=0.5;entryDx=0;entryDy=0;" edge="1" parent="1" source="krYbnd5S0f_VIoZWMm4v-15" target="krYbnd5S0f_VIoZWMm4v-18">
          <mxGeometry width="50" height="50" relative="1" as="geometry">
            <mxPoint x="-68" y="164" as="sourcePoint" />
            <mxPoint x="-96" y="87" as="targetPoint" />
          </mxGeometry>
        </mxCell>
        <mxCell id="krYbnd5S0f_VIoZWMm4v-45" value="" style="endArrow=classic;html=1;rounded=0;fontSize=12;startSize=8;endSize=8;curved=1;exitX=0.1;exitY=0.2;exitDx=0;exitDy=0;exitPerimeter=0;" edge="1" parent="1" source="krYbnd5S0f_VIoZWMm4v-15">
          <mxGeometry width="50" height="50" relative="1" as="geometry">
            <mxPoint x="-95" y="63" as="sourcePoint" />
            <mxPoint x="-123" y="-14" as="targetPoint" />
          </mxGeometry>
        </mxCell>
        <mxCell id="krYbnd5S0f_VIoZWMm4v-46" value="" style="endArrow=classic;html=1;rounded=0;fontSize=12;startSize=8;endSize=8;curved=1;exitX=0.5;exitY=0;exitDx=0;exitDy=0;exitPerimeter=0;" edge="1" parent="1" source="krYbnd5S0f_VIoZWMm4v-15">
          <mxGeometry width="50" height="50" relative="1" as="geometry">
            <mxPoint x="-100" y="-23" as="sourcePoint" />
            <mxPoint x="-130" y="-100" as="targetPoint" />
          </mxGeometry>
        </mxCell>
        <mxCell id="krYbnd5S0f_VIoZWMm4v-47" value="" style="endArrow=classic;html=1;rounded=0;fontSize=12;startSize=8;endSize=8;curved=1;entryX=0;entryY=1;entryDx=0;entryDy=0;" edge="1" parent="1" target="krYbnd5S0f_VIoZWMm4v-25">
          <mxGeometry width="50" height="50" relative="1" as="geometry">
            <mxPoint x="-402" y="592" as="sourcePoint" />
            <mxPoint x="-310" y="511" as="targetPoint" />
          </mxGeometry>
        </mxCell>
        <mxCell id="krYbnd5S0f_VIoZWMm4v-48" value="" style="endArrow=classic;html=1;rounded=0;fontSize=12;startSize=8;endSize=8;curved=1;exitX=0.516;exitY=0.016;exitDx=0;exitDy=0;exitPerimeter=0;entryX=0.5;entryY=1;entryDx=0;entryDy=0;" edge="1" parent="1" source="krYbnd5S0f_VIoZWMm4v-22" target="krYbnd5S0f_VIoZWMm4v-24">
          <mxGeometry width="50" height="50" relative="1" as="geometry">
            <mxPoint x="-407" y="583" as="sourcePoint" />
            <mxPoint x="-435" y="506" as="targetPoint" />
          </mxGeometry>
        </mxCell>
        <mxCell id="krYbnd5S0f_VIoZWMm4v-49" value="" style="endArrow=classic;html=1;rounded=0;fontSize=12;startSize=8;endSize=8;curved=1;entryX=0.717;entryY=0.988;entryDx=0;entryDy=0;entryPerimeter=0;" edge="1" parent="1" source="krYbnd5S0f_VIoZWMm4v-22" target="krYbnd5S0f_VIoZWMm4v-23">
          <mxGeometry width="50" height="50" relative="1" as="geometry">
            <mxPoint x="-512" y="557" as="sourcePoint" />
            <mxPoint x="-540" y="480" as="targetPoint" />
          </mxGeometry>
        </mxCell>
        <mxCell id="krYbnd5S0f_VIoZWMm4v-50" value="invalid user id" style="ellipse;whiteSpace=wrap;html=1;fontSize=16;" vertex="1" parent="1">
          <mxGeometry x="-379" y="-211" width="120" height="80" as="geometry" />
        </mxCell>
        <mxCell id="krYbnd5S0f_VIoZWMm4v-51" value="" style="endArrow=none;html=1;rounded=0;fontSize=12;startSize=8;endSize=8;curved=1;exitX=0.96;exitY=0.698;exitDx=0;exitDy=0;exitPerimeter=0;entryX=0.033;entryY=0.638;entryDx=0;entryDy=0;entryPerimeter=0;" edge="1" parent="1" source="krYbnd5S0f_VIoZWMm4v-6" target="krYbnd5S0f_VIoZWMm4v-50">
          <mxGeometry width="50" height="50" relative="1" as="geometry">
            <mxPoint x="-375" y="66" as="sourcePoint" />
            <mxPoint x="-325" y="16" as="targetPoint" />
          </mxGeometry>
        </mxCell>
        <mxCell id="krYbnd5S0f_VIoZWMm4v-52" value="exclude" style="text;html=1;align=center;verticalAlign=middle;resizable=0;points=[];autosize=1;strokeColor=none;fillColor=none;fontSize=16;" vertex="1" parent="1">
          <mxGeometry x="-470" y="-175" width="73" height="31" as="geometry" />
        </mxCell>
        <mxCell id="krYbnd5S0f_VIoZWMm4v-53" value="Check availability" style="ellipse;whiteSpace=wrap;html=1;fontSize=16;" vertex="1" parent="1">
          <mxGeometry x="-388" y="86" width="120" height="72" as="geometry" />
        </mxCell>
        <mxCell id="krYbnd5S0f_VIoZWMm4v-54" value="" style="endArrow=none;html=1;rounded=0;fontSize=12;startSize=8;endSize=8;curved=1;entryX=0.017;entryY=0.75;entryDx=0;entryDy=0;entryPerimeter=0;" edge="1" parent="1" target="krYbnd5S0f_VIoZWMm4v-53">
          <mxGeometry width="50" height="50" relative="1" as="geometry">
            <mxPoint x="-478" y="68" as="sourcePoint" />
            <mxPoint x="-325" y="16" as="targetPoint" />
          </mxGeometry>
        </mxCell>
        <mxCell id="krYbnd5S0f_VIoZWMm4v-56" value="" style="endArrow=none;html=1;rounded=0;fontSize=12;startSize=8;endSize=8;curved=1;entryX=0.333;entryY=0.986;entryDx=0;entryDy=0;entryPerimeter=0;" edge="1" parent="1" target="krYbnd5S0f_VIoZWMm4v-53">
          <mxGeometry width="50" height="50" relative="1" as="geometry">
            <mxPoint x="-470" y="216" as="sourcePoint" />
            <mxPoint x="-420" y="166" as="targetPoint" />
          </mxGeometry>
        </mxCell>
        <mxCell id="krYbnd5S0f_VIoZWMm4v-57" value="includes" style="edgeLabel;html=1;align=center;verticalAlign=middle;resizable=0;points=[];fontSize=16;" vertex="1" connectable="0" parent="krYbnd5S0f_VIoZWMm4v-56">
          <mxGeometry x="0.1556" y="-1" relative="1" as="geometry">
            <mxPoint as="offset" />
          </mxGeometry>
        </mxCell>
        <mxCell id="krYbnd5S0f_VIoZWMm4v-58" value="includes" style="text;html=1;align=center;verticalAlign=middle;resizable=0;points=[];autosize=1;strokeColor=none;fillColor=none;fontSize=16;" vertex="1" parent="1">
          <mxGeometry x="-461" y="87" width="77" height="31" as="geometry" />
        </mxCell>
        <mxCell id="krYbnd5S0f_VIoZWMm4v-59" value="Notify Late fee" style="ellipse;whiteSpace=wrap;html=1;fontSize=16;" vertex="1" parent="1">
          <mxGeometry x="-386" y="244" width="120" height="80" as="geometry" />
        </mxCell>
        <mxCell id="krYbnd5S0f_VIoZWMm4v-60" value="" style="endArrow=none;html=1;rounded=0;fontSize=12;startSize=8;endSize=8;curved=1;entryX=0.042;entryY=0.688;entryDx=0;entryDy=0;entryPerimeter=0;exitX=0.965;exitY=0.667;exitDx=0;exitDy=0;exitPerimeter=0;" edge="1" parent="1" source="krYbnd5S0f_VIoZWMm4v-13" target="krYbnd5S0f_VIoZWMm4v-59">
          <mxGeometry width="50" height="50" relative="1" as="geometry">
            <mxPoint x="-468.75" y="291" as="sourcePoint" />
            <mxPoint x="-418.75" y="241" as="targetPoint" />
          </mxGeometry>
        </mxCell>
        <mxCell id="krYbnd5S0f_VIoZWMm4v-61" value="extends" style="edgeLabel;html=1;align=center;verticalAlign=middle;resizable=0;points=[];fontSize=16;" vertex="1" connectable="0" parent="krYbnd5S0f_VIoZWMm4v-60">
          <mxGeometry x="0.2275" y="-2" relative="1" as="geometry">
            <mxPoint as="offset" />
          </mxGeometry>
        </mxCell>
        <mxCell id="krYbnd5S0f_VIoZWMm4v-63" value="" style="endArrow=none;html=1;rounded=0;fontSize=12;startSize=8;endSize=8;curved=1;entryX=0.433;entryY=1.018;entryDx=0;entryDy=0;entryPerimeter=0;exitX=0.5;exitY=0;exitDx=0;exitDy=0;" edge="1" parent="1" source="krYbnd5S0f_VIoZWMm4v-13" target="krYbnd5S0f_VIoZWMm4v-12">
          <mxGeometry width="50" height="50" relative="1" as="geometry">
            <mxPoint x="-567.5" y="299" as="sourcePoint" />
            <mxPoint x="-517.5" y="249" as="targetPoint" />
            <Array as="points" />
          </mxGeometry>
        </mxCell>
        <mxCell id="krYbnd5S0f_VIoZWMm4v-64" value="excludes" style="text;html=1;align=center;verticalAlign=middle;resizable=0;points=[];autosize=1;strokeColor=none;fillColor=none;fontSize=16;" vertex="1" parent="1">
          <mxGeometry x="-584" y="251" width="81" height="31" as="geometry" />
        </mxCell>
        <mxCell id="krYbnd5S0f_VIoZWMm4v-71" value="User" style="text;html=1;align=center;verticalAlign=middle;resizable=0;points=[];autosize=1;strokeColor=none;fillColor=none;fontSize=16;" vertex="1" parent="1">
          <mxGeometry x="-807" y="95" width="52" height="31" as="geometry" />
        </mxCell>
        <mxCell id="krYbnd5S0f_VIoZWMm4v-72" value="Librarian" style="text;html=1;align=center;verticalAlign=middle;resizable=0;points=[];autosize=1;strokeColor=none;fillColor=none;fontSize=16;" vertex="1" parent="1">
          <mxGeometry x="16" y="89" width="80" height="31" as="geometry" />
        </mxCell>
        <mxCell id="krYbnd5S0f_VIoZWMm4v-73" value="System administrator" style="text;html=1;align=center;verticalAlign=middle;resizable=0;points=[];autosize=1;strokeColor=none;fillColor=none;fontSize=16;" vertex="1" parent="1">
          <mxGeometry x="-494" y="648" width="168" height="31" as="geometry" />
        </mxCell>
      </root>
    </mxGraphModel>
  </diagram>
</mxfile>
